<svg width="22" height="19" viewBox="0 0 22 19" fill="none" xmlns="http://www.w3.org/2000/svg">
<path fill-rule="evenodd" clip-rule="evenodd" d="M21.1766 10.5081L17.1922 7.75L21.1766 4.99187C21.3791 4.85182 21.5 4.62125 21.5 4.375C21.5 4.12875 21.3791 3.89818 21.1766 3.75812L16.3016 0.383125C16.0449 0.205636 15.7051 0.205636 15.4484 0.383125L11 3.46281L6.55156 0.383125C6.29488 0.205636 5.95512 0.205636 5.69844 0.383125L0.823437 3.75812C0.620895 3.89818 0.500011 4.12875 0.500011 4.375C0.500011 4.62125 0.620895 4.85182 0.823437 4.99187L4.8125 7.75L0.828125 10.5081C0.625583 10.6482 0.504699 10.8787 0.504699 11.125C0.504699 11.3713 0.625583 11.6018 0.828125 11.7419L5.70312 15.1169C5.95981 15.2944 6.29957 15.2944 6.55625 15.1169L11 12.0372L15.4484 15.1169C15.7051 15.2944 16.0449 15.2944 16.3016 15.1169L21.1766 11.7419C21.3791 11.6018 21.5 11.3713 21.5 11.125C21.5 10.8787 21.3791 10.6482 21.1766 10.5081V10.5081ZM11 10.2128L7.44219 7.75L11.0047 5.28719L14.5625 7.75L11 10.2128ZM15.875 1.91219L19.4375 4.375L15.875 6.83781L12.3172 4.375L15.875 1.91219ZM6.125 1.91219L9.6875 4.375L6.125 6.83781L2.56719 4.375L6.125 1.91219ZM6.125 13.5878L2.56719 11.125L6.12969 8.66219L9.6875 11.125L6.125 13.5878ZM15.875 13.5878L12.3172 11.125L15.875 8.66219L19.4375 11.125L15.875 13.5878ZM13.8566 15.8978C14.0927 16.2378 14.0088 16.7048 13.6691 16.9412L11.4294 18.4919C11.1727 18.6694 10.8329 18.6694 10.5763 18.4919L8.33375 16.9375C7.99503 16.7012 7.91109 16.2355 8.14599 15.8958C8.38089 15.5561 8.84621 15.4703 9.18688 15.7038L11 16.9628L12.8131 15.7075C13.1538 15.4719 13.621 15.5571 13.8566 15.8978V15.8978Z" fill="#0D141C"/>
</svg>
