<!DOCTYPE svg PUBLIC "-//W3C//DTD SVG 1.1//EN" "http://www.w3.org/Graphics/SVG/1.1/DTD/svg11.dtd">
<!-- Uploaded to: SVG Repo, www.svgrepo.com, Transformed by: SVG Repo Mixer Tools -->
<svg fill="#0D141C" width="800px" height="800px" viewBox="0 0 24 24" xmlns="http://www.w3.org/2000/svg">
<g id="SVGRepo_bgCarrier" stroke-width="0"/>
<g id="SVGRepo_tracerCarrier" stroke-linecap="round" stroke-linejoin="round"/>
<g id="SVGRepo_iconCarrier">
<path d="M10.21,6.21l.79-.8V10a1,1,0,0,0,2,0V5.41l.79.8a1,1,0,0,0,1.42,0,1,1,0,0,0,0-1.42l-2.5-2.5a1,1,0,0,0-.33-.21,1,1,0,0,0-.76,0,1,1,0,0,0-.33.21l-2.5,2.5a1,1,0,0,0,1.42,1.42ZM18,7.56A1,1,0,1,0,16.56,9,6.45,6.45,0,1,1,7.44,9,1,1,0,1,0,6,7.56a8.46,8.46,0,1,0,12,0Z"/>
</g>
</svg>